<?xml version="1.0" encoding="iso-8859-1"?>
<!-- Generator: Adobe Illustrator 19.0.0, SVG Export Plug-In . SVG Version: 6.00 Build 0)  -->
<svg version="1.1" id="Capa_1" xmlns="http://www.w3.org/2000/svg" xmlns:xlink="http://www.w3.org/1999/xlink" x="0px" y="0px"
	 viewBox="0 0 512 512" style="enable-background:new 0 0 512 512;" xml:space="preserve">
<g>
	<g>
		<path d="M428.025,0h-59.197c-29.894,0-55.825,19.225-64.522,47.838l-10.958,36.139H92.196c-6.355,0-12.5,2.642-16.874,7.256
			c-4.374,4.624-6.675,10.909-6.325,17.254l5.344,96.918l12.77,231.405c2.322,42.164,37.22,75.19,79.454,75.19h115.853
			c42.234,0,77.132-33.026,79.454-75.19l12.76-231.245l5.354-97.078c0.35-6.345-1.952-12.63-6.325-17.254
			c-4.373-4.614-10.518-7.256-16.874-7.256h-32.073l8.314-27.422c4.834-15.863,19.215-26.531,35.799-26.531h59.197
			c8.287,0,15.012-6.715,15.012-15.012C443.037,6.725,436.312,0,428.025,0z M124.563,223.119l-16.552-5.837
			c-1.818-0.641-3.073-2.314-3.179-4.238l-5.182-94.007c-0.151-2.735,2.027-5.035,4.766-5.035h173.395
			c3.203,0,5.496,3.092,4.568,6.158l-30.534,100.697c-21.757-4.573-44.255-3.613-65.702,2.883
			C165.926,229.864,144.639,229.654,124.563,223.119z M344.569,114.001c2.739,0,4.917,2.301,4.766,5.035l-5.191,94.168
			c-0.106,1.925-1.359,3.596-3.177,4.238l-16.024,5.656c-14.241,4.654-29.103,6.125-43.745,4.414l-61.449,202.692
			c-1.972,6.475-7.926,10.659-14.362,10.659c-1.441,0-2.912-0.21-4.363-0.651c-7.936-2.402-12.41-10.789-10.008-18.725
			l60.829-200.63c3.683,0.771,7.355,1.701,10.988,2.792l0.641,0.19c5.835,1.751,11.759,2.982,17.724,3.673l33.388-110.123
			c0.61-2.012,2.465-3.388,4.568-3.388H344.569z"/>
	</g>
</g>
<g>
</g>
<g>
</g>
<g>
</g>
<g>
</g>
<g>
</g>
<g>
</g>
<g>
</g>
<g>
</g>
<g>
</g>
<g>
</g>
<g>
</g>
<g>
</g>
<g>
</g>
<g>
</g>
<g>
</g>
</svg>
