<svg height="512" viewBox="0 0 57 58" width="512" xmlns="http://www.w3.org/2000/svg"><g id="Page-1" fill="none" fill-rule="evenodd"><g id="027---Wine-Barrel" fill="rgb(0,0,0)" fill-rule="nonzero" transform="translate(-1)"><path id="Shape" d="m51.227 20h4.114c-.6929597-1.7298843-1.5225822-3.4018361-2.481-5h-3.248c.6341978 1.6341658 1.17343 3.3036154 1.615 5z"/><path id="Shape" d="m24.95 41h6.25c-.2372571-4.3299446-.2425981-8.6694845-.016-13-.9566002 1.6562673-2.645541 2.7572175-4.547 2.964.6291915 1.7315587.4262769 3.6563606-.5501557 5.2186527s-2.617674 2.5881398-4.4498443 2.7813473c.2388825.6522842.3617366 1.3413505.363 2.036z"/><path id="Shape" d="m41.2 20c-.211-1.793-.454-3.469-.725-5h-5.952c-.276 1.568-.517 3.243-.718 5h7.4z"/><path id="Shape" d="m47.46 15h-4.96c.266 1.541.5 3.215.708 5h5.955c-.4613254-1.7010137-1.0301352-3.3710366-1.703-5z"/><path id="Shape" d="m19.687 20h3c.4246908-.2804121.8833856-.505559 1.365-.67.3377271-1.4757396.7883878-2.9233368 1.348-4.33h-3.249c-.9593734 1.5950137-1.7835828 3.2675166-2.464 5z"/><path id="Shape" d="m50.557 41c.5880006-4.6481446.5880006-9.3518554 0-14h-6.757c.2560003 4.6631558.2560003 9.3368442 0 14z"/><path id="Shape" d="m17.883 30.5c-.0235067.0302305-.0488901.0589537-.076.086-.524343.6955047-.8076566 1.542988-.807 2.414.0035144.806414.2533327 1.5925041.716 2.253 1.0291791.3101279 1.9561485.8910379 2.684 1.682.1981285.0363986.3986732.0581243.6.065 1.5190675.0012556 2.9077516-.8580623 3.5844694-2.2180699.6767177-1.3600076.5246684-2.9859694-.3924694-4.1969301-.0265307-.0265948-.051569-.0546377-.075-.084-.5633814-.7082688-1.352002-1.2026121-2.235-1.401-.5808142-.1300034-1.1831858-.1300034-1.764 0-.8828592.1981245-1.6714611.6921034-2.235 1.4zm2.117 2.5c.5522847 0 1 .4477153 1 1s-.4477153 1-1 1-1-.4477153-1-1 .4477153-1 1-1z"/><path id="Shape" d="m33.193 41h8.616c.2565012-4.663226.2534965-9.3371076-.009-14h-8.556c-.2936935 4.6615568-.3107234 9.3364272-.051 14z"/><path id="Shape" d="m42.32 22h-11.132c.5313147.9105498.811515 1.9457723.812 3h24.932c-.23-.969-.513-1.962-.858-3z"/><path id="Shape" d="m22 25c.0036184.8145827.2581687 1.6082625.729 2.273 1.0164137.307132 1.9323235.8802229 2.653 1.66.2039913.0380513.4105935.0604499.618.067 2.209139 0 4-1.790861 4-4s-1.790861-4-4-4-4 1.790861-4 4zm3 2c-.5522847 0-1-.4477153-1-1s.4477153-1 1-1 1 .4477153 1 1-.4477153 1-1 1z"/><path id="Shape" d="m31.8 20c.2-1.751.431-3.425.7-5h-4.956c-.5462125 1.303623-1.0026111 2.6430829-1.366 4.009 1.1161668.0307338 2.2013077.3740846 3.132.991z"/><path id="Shape" d="m32.5 53c-.266-1.541-.5-3.215-.708-5h-5.952c.460929 1.7007664 1.028724 3.3707515 1.7 5z"/><path id="Shape" d="m41.207 48h-7.407c.211 1.793.454 3.469.725 5h5.959c.271-1.54.516-3.214.723-5z"/><path id="Shape" d="m41.315 55h-17.9c.6365686.9234065 1.3204826 1.8132623 2.049 2.666.1900792.2160932.4652341.3381407.753.334h22.567c.2877108.0038709.5627579-.1181287.753-.334.7285174-.8527377 1.4124314-1.7425935 2.049-2.666z"/><path id="Shape" d="m57.35 27h-4.787c.566998 4.6494442.566998 9.3505558 0 14h4.787c.8650071-4.6265825.8650071-9.3734175 0-14z"/><path id="Shape" d="m23.78 48h-4.1c.6774416 1.7334465 1.501076 3.4061403 2.462 5h3.253c-.6361264-1.6334801-1.1753953-3.3030434-1.615-5z"/><path id="Shape" d="m42.75 43h-21.1c-.4358159 1.2263189-1.2566924 2.2787246-2.34 3h36.764c.345-1.038.628-2.031.858-3z"/><path id="Shape" d="m49.612 53h3.248c.9584178-1.5981639 1.7880403-3.2701157 2.481-5h-4.116c-.4389503 1.696914-.9775511 3.3664765-1.613 5z"/><path id="Shape" d="m43.216 48c-.2 1.777-.441 3.452-.708 5h4.955c.6708349-1.6294141 1.2386202-3.2993711 1.7-5z"/><path id="Shape" d="m16 37c-2.209139 0-4 1.790861-4 4s1.790861 4 4 4 4-1.790861 4-4-1.790861-4-4-4zm-1 6c-.5522847 0-1-.4477153-1-1s.4477153-1 1-1 1 .4477153 1 1-.4477153 1-1 1z"/><path id="Shape" d="m15 33c.0000763-.8713859-.2835506-1.7191075-.808-2.415-.0265307-.0265948-.051569-.0546377-.075-.084-.5633814-.7082688-1.352002-1.2026121-2.235-1.401-.5808142-.1300034-1.1831858-.1300034-1.764 0-.88285919.1981245-1.67146113.6921034-2.235 1.4-.02350673.0302305-.04889009.0589537-.076.086-.91664819 1.2111029-1.06826992 2.8368826-.39137889 4.1966005.67689104 1.3597178 2.06549367 2.2187472 3.58437889 2.2173995.2013268-.0068757.4018715-.0286014.6-.065.7278515-.7909621 1.6548209-1.3718721 2.684-1.682.4626673-.6604959.7124856-1.446586.716-2.253zm-5 2c-.55228475 0-1-.4477153-1-1s.44771525-1 1-1c.5522847 0 1 .4477153 1 1s-.4477153 1-1 1z"/><path id="Shape" d="m10 25c0-2.209139-1.790861-4-4-4s-4 1.790861-4 4 1.790861 4 4 4c.20740652-.0065501.41400865-.0289487.618-.067.72023843-.7803055 1.6363026-1.3534931 2.653-1.66.47083135-.6647375.72538155-1.4584173.729-2.273zm-5 2c-.55228475 0-1-.4477153-1-1s.44771525-1 1-1 1 .4477153 1 1-.44771525 1-1 1z"/><path id="Shape" d="m2.576 11.112c1.03508777 1.7652821 2.70515771 3.0687165 4.669 3.644.65440904.1909975 1.3322964.2896177 2.014.293.8213789.0141825 1.6346954-.163891 2.375-.52.3809817-.1919105.7207048-.4565548 1-.779 2.31 2.285 2.366 6.026 2.366 6.25v1.139c-1.2686365.3171033-2.298935 1.2400549-2.7531521 2.4663012-.4542172 1.2262462-.2737838 2.5976683.4821521 3.6646988 1.0159846.3069215 1.9315424.8796629 2.652 1.659.4096925.0659968.8273075.0659968 1.237 0 .7205472-.7797133 1.636534-1.3525071 2.653-1.659.7545854-1.0669067.9342351-2.4373948.4801287-3.6627423s-1.4834961-2.1477728-2.7511287-2.4652577v-1.142c.0558938-1.8630251.3304417-3.7130354.818-5.512.3362438.0857064.6820078.1283809 1.029.127 1.2768071-.0776 2.519967-.4405016 3.638-1.062.36-.179.69-.365 1.006-.554h28.094c-.622-.9-1.308-1.8-2.048-2.673-.1937359-.2124372-.4695352-.3312094-.757-.326h-22.258c.029-.059.065-.115.092-.174 0-.005.032-.066.033-.071.2914579-.7468279.4449455-1.54035496.453-2.342.0163709-.38916563.0594725-.77674575.129-1.16.0429859-.191957.1039206-.37944836.182-.56.2723201-.57323009.6178718-1.10870069 1.028-1.593.287-.362.575-.719.908-1.112.4495522-.39981266.620567-1.02738986.436-1.6-.231-.566-.749-.836-1.605-.8l-.56.023c-1.7685871-.01580733-3.5321261.191154-5.249.616l-.237.071c-2.5355753.83046828-4.6577556 2.59883257-5.932 4.943-.9854903 1.68576159-1.3134848 3.67616467-.921 5.589.1436911.5547997.4056808 1.0719565.768 1.516-.132.431-.249.857-.35 1.272-.5770724-1.1426678-1.3997163-2.1435683-2.409-2.931-.1824148-1.1339944-.6875432-2.19146591-1.455-3.046-.8442705-1.2112149-2.0804387-2.09419215-3.5-2.5l-.061-.013c-.61759185-.10169075-1.24853235-.09016982-1.862.034-.2727272.04737367-.54836574.0761069-.825.086-.12933778.00037073-.25836399-.01269946-.385-.039-.43512549-.10373915-.85519904-.26269498-1.25-.473-.305-.149-.6-.3-.939-.478-.44258887-.32195821-1.03656533-.34215341-1.5-.051-.49131002.35844376-.6707468 1.00822869-.433 1.568l.1.4c.27312952 1.30760036.70990163 2.57558339 1.3 3.774zm12.424 15.888c-.5522847 0-1-.4477153-1-1s.4477153-1 1-1 1 .4477153 1 1-.4477153 1-1 1zm10.327-15.392.016-.016zm-7.36-4.421c1.0233392-1.88501084 2.727706-3.30823765 4.765-3.979l.189-.057c1.351865-.34186868 2.7405822-.51650784 4.135-.52l-.185.232c-.5190544.61872939-.9535288 1.30373276-1.292 2.037 0 .006-.038.094-.041.1-.1122565.27160917-.1999407.55273407-.262.84-.0900019.47609327-.1461426.95796756-.168 1.442-.0005256.56137877-.0962146 1.11860638-.283 1.648l-.025.056c-.7302011 1.2540863-1.855574 2.230699-3.2 2.777-.9452777.5686897-2.0355718.8501232-3.138.81.8210328-2.4703746 2.5998254-4.50750095 4.937-5.654.4993742-.22257052.7274312-.80493118.5119982-1.30742579-.2154329-.50249461-.7944852-.73882584-1.2999982-.53057421-2.4360284 1.1169663-4.3834353 3.08072004-5.48 5.526-.043771-1.19545701.2456727-2.37954481.836-3.42zm-10.067.905c.96842289.32132233 1.80319771.95426028 2.374 1.8.083.1.211.264.349.457-.85428636-.2356041-1.73682944-.35302982-2.623-.349-.55228475 0-1 .4477153-1 1s.44771525 1 1 1c1.0108403-.0144279 2.012812.190265 2.937.6-.0639339.0544382-.1329127.1026564-.206.144-.93400543.3865428-1.97705177.418549-2.933.09-1.46496178-.4271583-2.71152815-1.3975843-3.485-2.713l-.068-.121c-.37552306-.73844809-.66508309-1.51754239-.863-2.322.48324406.23096577.99307609.40158149 1.518.508.23078602.04311032.4652358.06354095.7.061.3721346-.00894979.7431199-.04504566 1.11-.108.38809059-.0853061.78809162-.10222662 1.182-.05z"/></g></g></svg>